<?xml version="1.0" encoding="UTF-8"?>
<svg id="Layer_2" data-name="Layer 2" xmlns="http://www.w3.org/2000/svg" viewBox="0 0 2902 312">
  <defs>
    <style>
      .cls-1 {
        fill: #0000f9;
      }
    </style>
  </defs>
  <g id="Orig.Thin">
    <g>
      <path class="cls-1" d="M2902,23c0,5.5-2.25,10.5-5.88,14.12-3.62,3.63-8.62,5.88-14.12,5.88h-135v239c0,12.65-10.35,23-23,23-6.32,0-12.08-2.59-16.24-6.76-4.17-4.16-6.76-9.92-6.76-16.24V43h-139c-11,0-20-9-20-20,0-8.83,5.8-16.37,13.78-19,1.96-.65,4.05-1,6.22-1h320c10.59,0,19.33,8.35,19.96,18.79.03.4.04.8.04,1.21Z"/>
      <path class="cls-1" d="M2174.36,302.22c-2.89,1.22-5.9,1.79-8.86,1.79-8.99,0-17.57-5.3-21.26-14.07l-13.02-30.94-3.52-8.37c-.56.05-1.13.07-1.7.07h-120.12c-12.65,0-23-10.35-23-23s10.35-23,23-23h102.5l-61.73-146.73c-21.88-29.4-37.71-1.23-38.36-.04-.01.03-.02.04-.02.04l-88.16,201.03-14.25,32.5c-3.28,7.49-10.15,12.37-17.71,13.5h-6.8c-1.96-.29-3.9-.84-5.79-1.67-8.61-3.77-13.76-12.27-13.76-21.13,0-3.07.62-6.19,1.93-9.17l6.15-14.03,94.73-216,1.53-3.5s.12-.28.37-.8c2.52-5.26,18.57-34.7,60.95-34.7,26.22,0,42.83,12.38,52.33,23.19t.02.01c6.3,7.17,9.48,13.65,10.26,15.36.13.29.19.44.19.44l90.87,216,5.51,13.1c4.91,11.66-.62,25.22-12.28,30.12Z"/>
      <path class="cls-1" d="M1870.72,136.29c.86,38.76-29.46,71.19-68.2,72.68-.98.04-1.51.04-1.51.04h-148.37c-12.65,0-23-10.35-23-23h0c0-12.65,10.35-23,23-23h148.37s26.79,1.41,26.79-26.79v-54.21s2.21-32-34.29-32h-159.97c-24.04,0-43.53,19.49-43.53,43.53v194.91c0,12.6-9.9,23.28-22.49,23.55-.17,0-.34.01-.51.01h-.02c-4.34,0-8.42-1.23-11.89-3.35-.63-.38-1.24-.8-1.83-1.24s-1.16-.91-1.7-1.41c-.27-.25-.54-.5-.8-.76-4.17-4.16-6.76-9.92-6.76-16.24V88.5c0-82.5,73.5-77.5,73.5-77.5h178.02c16.81,0,30.03,2.7,40.41,6.99,19.82,8.2,32.78,27.51,33.26,48.95l1.53,69.34Z"/>
      <path class="cls-1" d="M974.75,4.5h-9.5c1.53-.33,3.12-.5,4.75-.5s3.22.17,4.75.5Z"/>
      <path class="cls-1" d="M1112,281.5c0,12.65-10.35,23-23,23h-283c-12.65,0-23-10.35-23-23,0-6.32,2.59-12.08,6.76-16.24,3.09-3.1,7.06-5.32,11.49-6.26h123.75V47h-124.75c-4.61,0-8.88-1.48-12.37-4-5.37-3.86-8.88-10.17-8.88-17.25,0-5.85,2.39-11.16,6.24-15.01,3.85-3.85,9.16-6.24,15.01-6.24h286.5c11.69,0,21.25,9.56,21.25,21.25,0,7.08-3.51,13.39-8.88,17.25-3.49,2.52-7.76,4-12.37,4h-115.75v212h122.75c10.39,2.2,18.25,11.48,18.25,22.5Z"/>
      <path class="cls-1" d="M674.76,35.33l-3.15,7.67-88.83,216s-.02.04-.05.13c-.01.03-.02.07-.04.11-.09.24-.27.66-.51,1.23-.04.1-.08.2-.13.3-.55,1.25-1.41,3.09-2.63,5.33-.01.01-.01.02-.02.03-7.05,12.91-25.94,38.87-63.81,38.87-49.62,0-67.94-44.57-68.5-45.97-.01-.02-.01-.03-.01-.03-.4-.7-.76-1.43-1.08-2.19l-91.41-213.81-2.86-6.7c-4.97-11.63.48-25.21,12.11-30.19,11.63-4.97,25.22.48,30.19,12.11l10.59,24.78,83.68,195.73s.01.02.03.06c.64,1.19,11.03,20.21,26.6,20.21s23.48-13.37,23.96-14.21c.01-.03.02-.04.02-.04l82.96-201.75,10.35-25.17c3.06-7.44,9.64-12.43,17.03-13.83h8.61c1.47.28,2.94.72,4.38,1.31,11.7,4.81,17.33,18.32,12.52,30.02Z"/>
      <g>
        <rect class="cls-1" x="189.05" y="41.51" width="46" height="219.9" rx="23" ry="23" transform="translate(60.59 363.51) rotate(-90)"/>
        <path class="cls-1" d="M116.1,305h186.06c12.65,0,23.42-9.94,23.65-22.59.12-6.48-2.5-12.4-6.76-16.65-4.17-4.17-9.91-6.76-16.24-6.76H123.84c-29.02,0-55.07-18.32-64.32-45.82-5.01-14.91-8.53-34.37-8.53-59.63,0-27.02,4.03-47.42,9.6-62.71,9.38-25.75,33.92-42.84,61.33-42.84h184.34c5.21,0,10.02-1.88,13.75-5,4.73-3.95,7.75-9.89,7.75-16.5,0-5.92-2.42-11.29-6.31-15.19-3.9-3.89-9.28-6.31-15.19-6.31H96.92c-8.12.5-23.51,2.54-39.92,12-17.83,10.28-27.64,24-31.98,31C10.89,69.46,0,101.56,0,149.5c0,51.42,12.53,86.16,28.14,109.5,0,0,25.05,46,87.96,46Z"/>
      </g>
      <g>
        <path class="cls-1" d="M2283.79,2.63c-1.19.29-2.43.61-3.71.96,1.28-.36,2.51-.68,3.71-.96Z"/>
        <path class="cls-1" d="M2498.22,1h-206.4l8.79-1h191.39c2.17,0,4.26.35,6.22,1Z"/>
        <path class="cls-1" d="M2283.79,2.63c-1.19.29-2.43.61-3.71.96,1.28-.36,2.51-.68,3.71-.96Z"/>
        <path class="cls-1" d="M2283.79,2.63c-1.19.29-2.43.61-3.71.96,1.28-.36,2.51-.68,3.71-.96Z"/>
        <path class="cls-1" d="M2300.61,0l-8.79,1c5.43-.89,8.79-1,8.79-1Z"/>
        <path class="cls-1" d="M2300.61,0l-8.79,1c5.43-.89,8.79-1,8.79-1Z"/>
      </g>
      <path class="cls-1" d="M1155,259v23c0,6.32,2.59,12.08,6.76,16.24.26.26.53.51.8.76.54.5,1.11.97,1.7,1.41s1.2.86,1.83,1.24c3.47,2.12,7.55,3.35,11.89,3.35.18,0,.35-.01.53-.01,12.59-.27,22.49-10.95,22.49-23.55V86.31c0-23.92,19.39-43.31,43.31-43.31h18.71c7.79,0,15.5,1.89,22.24,5.79,7.87,4.55,15.73,12.42,15.73,25.68v207.53c0,6.32,2.59,12.08,6.76,16.24,4.27,4.28,10.23,6.9,16.75,6.75,12.59-.27,22.49-10.95,22.49-23.55V77.67c0-7.03,1.93-13.99,5.86-19.82,3.92-5.81,10.4-11.62,21.07-13.96,2.96-.65,5.99-.9,9.02-.9h17.31c11.58,0,22.96,3.58,32.15,10.61,7.27,5.57,13.59,13.56,13.59,24.55v203.84c0,6.32,2.59,12.08,6.76,16.24,4.27,4.28,10.23,6.9,16.75,6.75,12.59-.27,22.49-10.95,22.49-23.55V77.93c0-2.12-.39-18.22-11.66-34.93-6.41-9.5-16.34-19.2-31.71-26.64-12.49-6.05-28.57-10.6-49.28-12.36h-22.12c-13.67,1.29-24.89,5.03-34.1,10.27-7.62,4.33-13.87,9.68-18.98,15.51-5.38-5.26-11.97-10.18-20.04-14.28-13.58-6.91-31.36-11.5-54.63-11.5s-39.18,4.18-52.17,10.55c-15.32,7.51-25.1,18.08-31.33,28.45-10.76,17.88-10.98,35.16-10.98,35.16v180.84"/>
      <path class="cls-1" d="M2515,276.04v5.92c0,11.02-9.02,20.04-20.04,20.04h-198.46s-85.5,5-85.5-94.5v-107.49c0-26.31,6.6-45.71,16.21-60.01l.22-.33c.36-.53.72-1.05,1.09-1.56.19-.27.39-.54.58-.81.05-.07.1-.13.14-.19.41-.56.82-1.1,1.24-1.63.49-.63.98-1.25,1.49-1.86.06-.08.12-.15.18-.23.51-.61,1.03-1.22,1.55-1.81.53-.6,1.06-1.19,1.6-1.77.29-.31.58-.62.88-.93.29-.31.59-.61.89-.91.13-.14.26-.27.39-.39.36-.37.72-.72,1.09-1.07.54-.52,1.09-1.03,1.64-1.54,1.29-1.17,2.59-2.29,3.91-3.35.49-.39.98-.78,1.47-1.16.73-.56,1.47-1.11,2.2-1.64.44-.32.88-.63,1.32-.93.66-.47,1.34-.92,2.01-1.36.31-.2.61-.4.92-.6.81-.52,1.62-1.02,2.43-1.5.23-.14.46-.28.7-.41h0c.88-.52,1.77-1.02,2.65-1.5.38-.21.75-.41,1.12-.6,1.12-.59,2.23-1.15,3.34-1.68.74-.36,1.48-.7,2.21-1.03.55-.25,1.1-.49,1.64-.72.55-.24,1.09-.47,1.64-.69.42-.17.84-.34,1.25-.5.54-.22,1.08-.42,1.61-.62.24-.1.47-.18.7-.27.41-.15.82-.3,1.23-.44.53-.19,1.04-.37,1.56-.54,1.38-.47,2.72-.89,4.04-1.28.65-.2,1.3-.38,1.94-.56,1.28-.35,2.52-.67,3.71-.96.55-.14,1.08-.26,1.61-.38.46-.11.91-.2,1.35-.29.44-.1.87-.18,1.3-.27.27-.06.53-.11.8-.16,1.05-.2,2.04-.38,2.97-.53h206.4c8.28,2.73,14.22,10.75,13.75,20.02-.53,10.73-9.78,18.98-20.53,18.98h-178.94c-56.5,0-55.5,50-55.5,50v68.56s-.02,44.1,0,46.44c0,0-4,51,48.5,51h189.46c11.02,0,20.04,9.02,20.04,20.04Z"/>
    </g>
  </g>
</svg>